<svg width="95" height="50" viewBox="0 0 95 50" fill="none" xmlns="http://www.w3.org/2000/svg">
<path d="M7.32214 0.0203972H16.4468L16.4464 4.56395H7.32214V0.0203972ZM4.56236 13.6513V15.8399C4.56236 17.5619 5.24814 18.1945 6.74119 18.1945L16.447 18.1946V22.7383H6.00238C2.01943 22.7383 0.0122537 20.1161 0.0122537 16.7952L0 13.6512L4.56236 13.6513Z" fill="white"/>
<path d="M30.5711 13.6307V22.7178H26.0087V13.6309L18.687 -1.71661e-05H23.2492L30.5711 13.6307ZM28.4692 9.0871L33.3306 -1.71661e-05H37.8926L33.0314 9.0871H28.4692Z" fill="white"/>
<path d="M45.0722 9.10761H49.634C51.491 9.10761 51.954 8.65067 51.954 7.17638V6.49999C51.954 4.88214 51.4867 4.56394 49.6342 4.56394H40.1477L42.5785 0.0203876H50.3793C55.4405 0.0203876 56.5236 2.71762 56.5236 4.56394V7.46279C56.4929 9.21548 55.6118 10.0568 53.8683 10.7409C55.6282 11.4174 56.9251 12.9673 56.956 14.8429V18.1947C56.956 21.4849 55.1271 22.7381 50.8117 22.7381L49.6342 22.7383V18.1947L49.7628 18.1946C51.6154 18.1946 52.3937 17.8592 52.3937 16.168V15.6781C52.3937 14.0839 51.4869 13.6513 49.6344 13.6513H45.0722V9.10761Z" fill="white"/>
<path d="M59.2031 13.6513V9.1074L75.6491 9.10791V13.6513H59.2031ZM75.6491 22.7383H59.2031V18.1947H75.6491V22.7383ZM59.2031 0.0204849H75.6491V4.56405H59.2031V0.0204849Z" fill="white"/>
<path d="M82.4337 13.6511H77.897V0.0202847H88.4102C91.6919 0.0202847 93.7147 2.16409 94.3434 4.56374L82.4337 4.56384V13.6511ZM91.5585 13.6513L94.845 22.7383H90.2826L86.9961 13.6513H91.5585Z" fill="white"/>
<path d="M7.32238 27.2819H16.4471V31.8256H7.32238V27.2819ZM4.56281 40.913V42.9981C4.56281 44.593 5.53813 45.4563 6.6849 45.4563H11.8845V40.9129H7.32176L7.323 36.369L16.4471 36.3695V48.9422V50C16.4471 50 11.2206 49.9999 6.12588 49.9999C2.1141 49.9999 0.000244141 47.5117 0.000244141 44.1907V40.9127L4.56281 40.913Z" fill="white"/>
<path d="M18.3184 50L19.9618 45.4563H32.5881L26.0146 27.2819H29.7585C30.7156 27.2819 30.6088 27.3448 30.8532 28.0199C31.2526 29.125 38.8065 50 38.8065 50H18.3184Z" fill="white"/>
<path d="M39.131 27.2819L44.7624 42.8379H45.3783L50.903 27.5587C50.903 27.5587 50.9649 27.2819 51.2736 27.2819H56.9556V50H52.3934V37.026H52.0415L47.4805 49.6335C47.4805 49.6335 47.3878 50 47.0174 50H43.0827C42.7122 50 42.6505 49.6335 42.6505 49.6335L34.5686 27.2819H39.131Z" fill="white"/>
<path d="M59.2032 36.3692H75.6243V40.9129H59.2032V36.3692ZM75.6243 45.4563V50L59.2033 49.9999L59.2032 45.4563H75.6243ZM59.2031 31.8255L59.2032 27.2819H75.6243V31.8255H59.2031Z" fill="white"/>
<path d="M77.897 36.3691V33.8866C77.897 28.7789 81.2601 27.284 86.3891 27.2835C92.3803 27.283 94.3433 27.2817 94.3433 27.2817V31.8253H86.3891C83.5401 31.8253 82.4593 32.7116 82.4593 34.0849V36.3691H77.897ZM94.3434 40.9128V43.2144C94.3434 48.3221 91.892 50.0003 86.4923 49.9997C80.1799 49.999 77.897 50 77.897 50V45.4562H86.4277C88.7948 45.4562 89.7811 44.7075 89.7811 43.1751V40.9128H94.3434Z" fill="white"/>
</svg>
