<svg width="95" height="50" viewBox="0 0 95 50" fill="none" xmlns="http://www.w3.org/2000/svg">
<path d="M7.32214 0.020462H16.4468L16.4465 4.56402H7.32214V0.020462ZM4.56236 13.6513V15.84C4.56236 17.562 5.24814 18.1946 6.74119 18.1946L16.447 18.1947V22.7383H6.00238C2.01943 22.7383 0.0122537 20.1162 0.0122537 16.7953L0 13.6512L4.56236 13.6513Z" fill="white"/>
<path d="M30.5711 13.6307V22.7178H26.0087V13.6309L18.687 3.23415e-05H23.2492L30.5711 13.6307ZM28.4692 9.08715L33.3306 3.23415e-05H37.8926L33.0314 9.08715H28.4692Z" fill="white"/>
<path d="M45.0722 9.10762H49.634C51.491 9.10762 51.954 8.65069 51.954 7.1764V6.50001C51.954 4.88216 51.4867 4.56396 49.6342 4.56396H40.1477L42.5785 0.0204063H50.3793C55.4405 0.0204063 56.5236 2.71764 56.5236 4.56396V7.46281C56.4929 9.2155 55.6118 10.0568 53.8683 10.741C55.6282 11.4174 56.9251 12.9673 56.956 14.843V18.1947C56.956 21.4849 55.1271 22.7381 50.8117 22.7381L49.6342 22.7383V18.1947L49.7628 18.1946C51.6154 18.1946 52.3937 17.8592 52.3937 16.168V15.6781C52.3937 14.0839 51.4869 13.6513 49.6344 13.6513H45.0722V9.10762Z" fill="white"/>
<path d="M59.2031 13.6513V9.10739L75.6491 9.10791V13.6513H59.2031ZM75.6491 22.7383H59.2031V18.1947H75.6491V22.7383ZM59.2031 0.0204773H75.6491V4.56404H59.2031V0.0204773Z" fill="white"/>
<path d="M82.4337 13.6513H77.897V0.0204937H88.4102C91.6919 0.0204937 93.7147 2.1643 94.3434 4.56395L82.4337 4.56405V13.6513ZM91.5585 13.6515L94.845 22.7385H90.2826L86.9961 13.6515H91.5585Z" fill="white"/>
<path d="M7.32238 27.2818H16.4471V31.8255H7.32238V27.2818ZM4.56281 40.9129V42.9981C4.56281 44.5929 5.53813 45.4563 6.6849 45.4563H11.8845V40.9128H7.32176L7.323 36.369L16.4471 36.3695V48.9422V49.9999C16.4471 49.9999 11.2206 49.9998 6.12588 49.9998C2.1141 49.9998 0.000244141 47.5117 0.000244141 44.1907V40.9126L4.56281 40.9129Z" fill="white"/>
<path d="M18.3184 49.9999L19.9618 45.4562H32.5881L26.0146 27.2818H29.7585C30.7156 27.2818 30.6088 27.3447 30.8532 28.0198C31.2526 29.1248 38.8065 49.9999 38.8065 49.9999H18.3184Z" fill="white"/>
<path d="M39.131 27.2818L44.7624 42.8377H45.3783L50.903 27.5585C50.903 27.5585 50.9649 27.2818 51.2736 27.2818H56.9556V49.9999H52.3934V37.0259H52.0415L47.4805 49.6334C47.4805 49.6334 47.3878 49.9999 47.0174 49.9999H43.0827C42.7122 49.9999 42.6505 49.6334 42.6505 49.6334L34.5686 27.2818H39.131Z" fill="white"/>
<path d="M59.2032 36.3692H75.6243V40.9129H59.2032V36.3692ZM75.6243 45.4563V50L59.2033 49.9999L59.2032 45.4563H75.6243ZM59.2031 31.8254L59.2032 27.2819H75.6243V31.8254H59.2031Z" fill="white"/>
<path d="M77.897 36.3691V33.8866C77.897 28.779 81.2601 27.2841 86.3891 27.2836C92.3803 27.2831 94.3433 27.2817 94.3433 27.2817V31.8253H86.3891C83.5401 31.8253 82.4593 32.7117 82.4593 34.085V36.3691H77.897ZM94.3434 40.9128V43.2144C94.3434 48.3221 91.892 50.0003 86.4923 49.9997C80.1799 49.999 77.897 50 77.897 50V45.4563H86.4277C88.7948 45.4563 89.7811 44.7075 89.7811 43.1752V40.9128H94.3434Z" fill="white"/>
</svg>
