<svg width="2540" height="1399" viewBox="0 0 2540 1399" fill="none" xmlns="http://www.w3.org/2000/svg">
<g clip-path="url(#clip0_62_609)">
<path d="M0 1398.67H2540V0.000164747H0V1398.67Z" fill="white"/>
<path d="M754.84 374.266H872.993L872.989 433.344H754.84V374.266ZM719.104 551.501V579.958C719.104 602.349 727.984 610.574 747.317 610.574L872.996 610.576V669.654H737.75C686.176 669.654 660.185 635.56 660.185 592.38L660.026 551.5L719.104 551.501Z" fill="#231F20"/>
<path d="M1055.89 551.232V669.387H996.808V551.235L902 374H961.075L1055.89 551.232ZM1028.67 492.155L1091.62 374H1150.69L1087.74 492.155H1028.67Z" fill="#231F20"/>
<path d="M1243.66 492.422H1302.73C1326.77 492.422 1332.77 486.481 1332.77 467.311V458.517C1332.77 437.481 1326.72 433.343 1302.73 433.343H1179.89L1211.37 374.266H1312.38C1377.91 374.266 1391.94 409.337 1391.94 433.343V471.035C1391.54 493.825 1380.13 504.763 1357.56 513.659C1380.34 522.455 1397.14 542.607 1397.54 566.995V610.577C1397.54 653.357 1373.86 669.651 1317.98 669.651L1302.73 669.654V610.577L1304.39 610.575C1328.38 610.575 1338.46 606.214 1338.46 584.225V577.854C1338.46 557.126 1326.72 551.501 1302.73 551.501H1243.66V492.422Z" fill="#231F20"/>
<path d="M1426.64 551.5V492.419L1639.6 492.425V551.5H1426.64ZM1639.6 669.653H1426.64V610.576H1639.6V669.653ZM1426.64 374.267H1639.6V433.344H1426.64V374.267Z" fill="#231F20"/>
<path d="M1727.45 551.5H1668.7V374.267H1804.84C1847.33 374.267 1873.52 402.141 1881.67 433.343L1727.45 433.344V551.5ZM1845.6 551.503L1888.16 669.656H1829.08L1786.53 551.503H1845.6Z" fill="#231F20"/>
<path d="M754.841 728.731H872.996V787.809H754.841V728.731ZM719.108 905.968V933.08C719.108 953.817 731.737 965.043 746.587 965.043H813.916V905.967H754.833L754.849 846.885L872.996 846.892V1010.37V1024.12C872.996 1024.12 805.318 1024.12 739.348 1024.12C687.4 1024.12 660.028 991.768 660.028 948.587V905.964L719.108 905.968Z" fill="#231F20"/>
<path d="M897.225 1024.12L918.506 965.042H1082L996.882 728.73H1045.36C1057.76 728.73 1056.37 729.548 1059.54 738.326C1064.71 752.694 1162.52 1024.12 1162.52 1024.12H897.225Z" fill="#202020"/>
<path d="M1166.73 728.731L1239.65 930.996H1247.62L1319.16 732.329C1319.16 732.329 1319.96 728.731 1323.96 728.731H1397.54V1024.12H1338.46V855.428H1333.91L1274.85 1019.36C1274.85 1019.36 1273.65 1024.12 1268.85 1024.12H1217.9C1213.1 1024.12 1212.3 1019.36 1212.3 1019.36L1107.65 728.731H1166.73Z" fill="#231F20"/>
<path d="M1426.64 846.888H1639.28V905.967H1426.64V846.888ZM1639.28 965.043V1024.12L1426.64 1024.12L1426.64 965.043H1639.28ZM1426.64 787.808L1426.64 728.731H1639.28V787.808H1426.64Z" fill="#231F20"/>
<path d="M1668.7 846.888V814.609C1668.7 748.197 1712.25 728.76 1778.67 728.753C1856.25 728.747 1881.67 728.729 1881.67 728.729V787.807H1778.67C1741.78 787.807 1727.78 799.332 1727.78 817.188V846.888H1668.7ZM1881.67 905.967V935.893C1881.67 1002.31 1849.92 1024.13 1780 1024.12C1698.27 1024.11 1668.7 1024.12 1668.7 1024.12V965.043H1779.17C1809.82 965.043 1822.59 955.307 1822.59 935.383V905.967H1881.67Z" fill="black"/>
</g>
<defs>
<clipPath id="clip0_62_609">
<rect width="2540" height="1398.67" fill="white"/>
</clipPath>
</defs>
</svg>
