<svg width="406" height="180" viewBox="0 0 406 180" fill="none" xmlns="http://www.w3.org/2000/svg">
<path d="M405.21 108.609L329.776 142.574L329.381 179.698L405.21 142.179V108.609Z" fill="#9D9D9D"/>
<path d="M405.21 108.609H99.9203L0.395006 142.574H329.776L405.21 108.609Z" fill="url(#paint0_linear_62_394)"/>
<path d="M329.776 142.574H0.395025L8.29399e-05 179.698L329.381 179.698L329.776 142.574Z" fill="#939393"/>
<path d="M406 52.9222L330.566 80.1732L330.171 117.298L406 86.4922V52.9222Z" fill="#E0E0E0"/>
<path d="M406 52.9222L330.566 80.1732L330.171 117.298L406 86.4922V52.9222Z" fill="#4FC3D8"/>
<path d="M406 52.9222H100.71L1.1848 80.1732H330.566L406 52.9222Z" fill="url(#paint1_linear_62_394)"/>
<path d="M330.566 80.1732H1.18482L0.789878 117.298L330.171 117.298L330.566 80.1732Z" fill="#CECECE"/>
<path d="M330.566 80.1732H1.18482L0.789878 117.298L330.171 117.298L330.566 80.1732Z" fill="#46BBD0"/>
<path d="M405.21 0L329.776 19.7471L329.381 56.8716L405.21 33.57V0Z" fill="#D2D2D2"/>
<path d="M405.21 0H99.9203L0.395006 19.7471H329.776L405.21 0Z" fill="#F0F0F0"/>
<path d="M329.776 19.7471H0.395025L8.29399e-05 56.8716L329.381 56.8716L329.776 19.7471Z" fill="#CECECE"/>
<defs>
<linearGradient id="paint0_linear_62_394" x1="212.854" y1="111.217" x2="216.497" y2="142.423" gradientUnits="userSpaceOnUse">
<stop stop-color="#CACACA"/>
<stop offset="1" stop-color="#A5A5A5"/>
</linearGradient>
<linearGradient id="paint1_linear_62_394" x1="203.471" y1="32.0173" x2="208.319" y2="80.4286" gradientUnits="userSpaceOnUse">
<stop stop-color="white"/>
<stop offset="1" stop-color="#56DAF2"/>
</linearGradient>
</defs>
</svg>
