<svg width="192" height="79" viewBox="0 0 192 79" fill="none" xmlns="http://www.w3.org/2000/svg">
<path fill-rule="evenodd" clip-rule="evenodd" d="M96 0.166688C91.6876 0.165367 87.4884 1.54642 84.0187 4.10715C80.5489 6.66787 77.9914 10.2734 76.7214 14.3945C75.4515 18.5157 75.536 22.9354 76.9627 27.0049C78.3893 31.0745 81.0829 34.5795 84.648 37.0057C78.4605 39.2751 73.0937 43.3443 69.2383 48.6896C65.3829 54.0348 63.2154 60.4115 63.0147 66.999C62.9928 67.7284 63.2615 68.4365 63.7618 68.9677C64.262 69.4989 64.9528 69.8096 65.6822 69.8315C66.4115 69.8534 67.1197 69.5847 67.6509 69.0844C68.1821 68.5842 68.4928 67.8934 68.5147 67.164C68.733 60.0194 71.7247 53.2405 76.8557 48.2639C81.9867 43.2873 88.8538 40.5041 96.0018 40.5041C103.15 40.5041 110.017 43.2873 115.148 48.2639C120.279 53.2405 123.271 60.0194 123.489 67.164C123.492 67.5302 123.568 67.8921 123.712 68.2285C123.857 68.565 124.067 68.8692 124.331 69.1232C124.594 69.3773 124.906 69.5762 125.248 69.7082C125.589 69.8402 125.954 69.9027 126.32 69.8919C126.686 69.8812 127.046 69.7974 127.379 69.6456C127.712 69.4938 128.012 69.277 128.26 69.0079C128.508 68.7388 128.7 68.4228 128.825 68.0785C128.95 67.7341 129.004 67.3684 128.985 67.0027C128.785 60.4145 126.618 54.037 122.763 48.6911C118.907 43.3451 113.54 39.2754 107.352 37.0057C110.917 34.5795 113.611 31.0745 115.037 27.0049C116.464 22.9354 116.548 18.5157 115.279 14.3945C114.009 10.2734 111.451 6.66787 107.981 4.10715C104.512 1.54642 100.312 0.165367 96 0.166688ZM81.3333 20.3334C81.3333 16.4435 82.8786 12.713 85.6291 9.96245C88.3796 7.21192 92.1102 5.66669 96 5.66669C99.8898 5.66669 103.62 7.21192 106.371 9.96245C109.121 12.713 110.667 16.4435 110.667 20.3334C110.667 24.2232 109.121 27.9537 106.371 30.7043C103.62 33.4548 99.8898 35 96 35C92.1102 35 88.3796 33.4548 85.6291 30.7043C82.8786 27.9537 81.3333 24.2232 81.3333 20.3334Z" fill="white"/>
<path fill-rule="evenodd" clip-rule="evenodd" d="M33 9.16669C28.6876 9.16537 24.4884 10.5464 21.0187 13.1071C17.5489 15.6679 14.9914 19.2734 13.7214 23.3945C12.4515 27.5157 12.5361 31.9354 13.9627 36.0049C15.3893 40.0745 18.0829 43.5795 21.648 46.0057C15.4605 48.2751 10.0937 52.3443 6.23832 57.6896C2.38295 63.0348 0.21541 69.4115 0.0146664 75.999C-0.00721397 76.7284 0.261534 77.4365 0.761787 77.9677C1.26204 78.4989 1.95282 78.8096 2.68217 78.8315C3.41151 78.8534 4.11968 78.5847 4.65087 78.0844C5.18207 77.5842 5.49279 76.8934 5.51467 76.164C5.73302 69.0194 8.72469 62.2405 13.8557 57.2639C18.9867 52.2873 25.8538 49.5041 33.0018 49.5041C40.1498 49.5041 47.017 52.2873 52.148 57.2639C57.279 62.2405 60.2707 69.0194 60.489 76.164C60.4918 76.5302 60.5677 76.8921 60.7122 77.2285C60.8567 77.565 61.067 77.8692 61.3306 78.1232C61.5943 78.3773 61.906 78.5762 62.2476 78.7082C62.5891 78.8402 62.9536 78.9027 63.3196 78.8919C63.6856 78.8812 64.0458 78.7974 64.379 78.6456C64.7122 78.4938 65.0118 78.277 65.2601 78.0079C65.5084 77.7388 65.7004 77.4228 65.825 77.0785C65.9495 76.7341 66.004 76.3684 65.9853 76.0027C65.7853 69.4145 63.6181 63.037 59.7627 57.6911C55.9073 52.3451 50.5401 48.2754 44.352 46.0057C47.9172 43.5795 50.6107 40.0745 52.0373 36.0049C53.464 31.9354 53.5485 27.5157 52.2786 23.3945C51.0086 19.2734 48.4511 15.6679 44.9813 13.1071C41.5116 10.5464 37.3124 9.16537 33 9.16669ZM18.3333 29.3334C18.3333 25.4435 19.8786 21.713 22.6291 18.9625C25.3796 16.2119 29.1102 14.6667 33 14.6667C36.8898 14.6667 40.6204 16.2119 43.3709 18.9625C46.1214 21.713 47.6667 25.4435 47.6667 29.3334C47.6667 33.2232 46.1214 36.9537 43.3709 39.7043C40.6204 42.4548 36.8898 44 33 44C29.1102 44 25.3796 42.4548 22.6291 39.7043C19.8786 36.9537 18.3333 33.2232 18.3333 29.3334Z" fill="white"/>
<path fill-rule="evenodd" clip-rule="evenodd" d="M159 9.16669C154.688 9.16537 150.488 10.5464 147.019 13.1071C143.549 15.6679 140.991 19.2734 139.721 23.3945C138.452 27.5157 138.536 31.9354 139.963 36.0049C141.389 40.0745 144.083 43.5795 147.648 46.0057C141.46 48.2751 136.094 52.3443 132.238 57.6896C128.383 63.0348 126.215 69.4115 126.015 75.999C125.993 76.7284 126.262 77.4365 126.762 77.9677C127.262 78.4989 127.953 78.8096 128.682 78.8315C129.412 78.8534 130.12 78.5847 130.651 78.0844C131.182 77.5842 131.493 76.8934 131.515 76.164C131.733 69.0194 134.725 62.2405 139.856 57.2639C144.987 52.2873 151.854 49.5041 159.002 49.5041C166.15 49.5041 173.017 52.2873 178.148 57.2639C183.279 62.2405 186.271 69.0194 186.489 76.164C186.492 76.5302 186.568 76.8921 186.712 77.2285C186.857 77.565 187.067 77.8692 187.331 78.1232C187.594 78.3773 187.906 78.5762 188.248 78.7082C188.589 78.8402 188.954 78.9027 189.32 78.8919C189.686 78.8812 190.046 78.7974 190.379 78.6456C190.712 78.4938 191.012 78.277 191.26 78.0079C191.508 77.7388 191.7 77.4228 191.825 77.0785C191.95 76.7341 192.004 76.3684 191.985 76.0027C191.785 69.4145 189.618 63.037 185.763 57.6911C181.907 52.3451 176.54 48.2754 170.352 46.0057C173.917 43.5795 176.611 40.0745 178.037 36.0049C179.464 31.9354 179.548 27.5157 178.279 23.3945C177.009 19.2734 174.451 15.6679 170.981 13.1071C167.512 10.5464 163.312 9.16537 159 9.16669ZM144.333 29.3334C144.333 25.4435 145.879 21.713 148.629 18.9625C151.38 16.2119 155.11 14.6667 159 14.6667C162.89 14.6667 166.62 16.2119 169.371 18.9625C172.121 21.713 173.667 25.4435 173.667 29.3334C173.667 33.2232 172.121 36.9537 169.371 39.7043C166.62 42.4548 162.89 44 159 44C155.11 44 151.38 42.4548 148.629 39.7043C145.879 36.9537 144.333 33.2232 144.333 29.3334Z" fill="white"/>
</svg>
